<svg width="131" height="70" viewBox="0 0 131 70" fill="none" xmlns="http://www.w3.org/2000/svg">
<path d="M18.1572 40.5997C18.8936 35.0656 20.7132 29.7309 23.512 24.9003C23.5955 24.7469 23.6915 24.5988 23.7812 24.4517L24.0503 24.0032L24.3194 23.5546L24.4558 23.3321L24.6002 23.115C24.9833 22.5346 25.369 21.9488 25.7665 21.3944C26.5673 20.2628 27.421 19.1686 28.3277 18.1118C30.1453 16.0163 32.1506 14.0911 34.3186 12.3605C36.4852 10.6394 38.8091 9.12614 41.2595 7.84086L41.7188 7.60043C41.8713 7.51969 42.0238 7.43806 42.1808 7.36629C42.4921 7.21647 42.8025 7.06396 43.1183 6.92491L43.5911 6.7105C43.7481 6.63963 43.9087 6.57504 44.0675 6.50686C44.385 6.37139 44.7026 6.23772 45.0256 6.11303C45.6661 5.85376 46.3183 5.6241 46.9696 5.39534L47.9564 5.07597L48.2031 4.99702L48.4516 4.92525L48.9495 4.78172L49.4474 4.63818C49.6134 4.58974 49.782 4.54847 49.9498 4.509L50.9546 4.25691L51.9683 4.0416L52.4752 3.93395C52.6447 3.90166 52.8161 3.87474 52.9856 3.84424L54.0074 3.6702C54.3492 3.61637 54.6928 3.58049 55.0346 3.53294L55.5486 3.46656L55.8061 3.43426L56.0645 3.41183L57.0971 3.32212C57.2693 3.30867 57.4415 3.29073 57.6138 3.28086L58.1314 3.26022L59.1676 3.21896C59.3398 3.20819 59.513 3.21088 59.6852 3.21178H60.2037L61.2408 3.21806L62.2761 3.27368C62.6205 3.29521 62.9668 3.30687 63.3104 3.33558L64.3412 3.44413L64.857 3.49885C65.0284 3.51859 65.2015 3.53205 65.372 3.55986C68.1143 3.93243 70.8096 4.59398 73.4127 5.53349C76.0142 6.47686 78.5136 7.68061 80.8731 9.12641C82.0501 9.85128 83.1912 10.6288 84.2965 11.4589C85.4017 12.289 86.4642 13.1721 87.4839 14.1081C87.9952 14.5728 88.4964 15.0467 88.9874 15.53C89.2332 15.7731 89.4799 16.0144 89.7195 16.2647L90.0783 16.637L90.4327 17.0156C91.3746 18.0275 92.2682 19.0852 93.1141 20.1788C93.9601 21.2724 94.7424 22.4153 95.4897 23.5797L96.0279 24.4661C96.1176 24.6141 96.2074 24.7594 96.2971 24.9146L96.5509 25.3632C96.7196 25.6655 96.8927 25.9651 97.0569 26.2701L97.5315 27.1933L97.7683 27.6544L97.989 28.1245L98.4295 29.0655C98.5057 29.2207 98.5685 29.3822 98.6367 29.541L98.8377 30.0201L99.0386 30.4982C99.1032 30.6588 99.1768 30.8158 99.2342 30.9791L99.593 31.9533C99.7132 32.2781 99.8379 32.601 99.9393 32.9321L100.259 33.9189C100.312 34.084 100.367 34.2481 100.417 34.4141L100.558 34.9138L100.699 35.4135L100.77 35.6638L100.834 35.9159L101.085 36.9242C101.234 37.6006 101.388 38.277 101.507 38.9597C101.759 40.3227 101.946 41.6959 102.07 43.0793C102.194 44.4626 102.255 45.8537 102.253 47.2526C102.246 48.6404 102.171 50.0274 102.038 51.4098C102.031 51.4802 102.01 51.5485 101.977 51.611C101.944 51.6734 101.898 51.7286 101.844 51.7736C101.789 51.8185 101.726 51.8523 101.659 51.8729C101.591 51.8935 101.52 51.9006 101.45 51.8938C101.379 51.887 101.311 51.8663 101.248 51.8331C101.186 51.7998 101.131 51.7546 101.086 51.7C101.041 51.6454 101.007 51.5825 100.986 51.5148C100.966 51.4472 100.959 51.3761 100.966 51.3057V51.2959C101.115 49.9502 101.208 48.5965 101.235 47.2409C101.262 45.8854 101.222 44.5281 101.117 43.1761C101.012 41.8242 100.84 40.4767 100.608 39.1392C100.498 38.469 100.354 37.8061 100.215 37.1422L99.9788 36.1554L99.9187 35.9078L99.8523 35.6629L99.7186 35.1713L99.5859 34.6796C99.5392 34.5173 99.4854 34.3558 99.436 34.1934L99.1319 33.2218C99.0368 32.8953 98.9175 32.5777 98.8027 32.2583L98.4573 31.3002C98.4035 31.1387 98.3326 30.9845 98.2707 30.8266L98.0778 30.3547L97.8858 29.8837C97.8203 29.7267 97.7602 29.5679 97.6867 29.4145L97.265 28.4869L97.0524 28.024L96.8228 27.5692L96.3634 26.6595C96.2038 26.3599 96.036 26.0638 95.8727 25.7624L95.626 25.3138C95.5453 25.164 95.4529 25.0214 95.3677 24.8751L94.8429 24.0005C94.1171 22.8522 93.3546 21.7245 92.531 20.6426C91.7075 19.5607 90.8346 18.5155 89.9141 17.5144L89.5688 17.1385L89.2099 16.7716C88.9767 16.524 88.7344 16.2862 88.4922 16.0458C88.0078 15.5673 87.515 15.0967 87.0138 14.6338C85.0107 12.7889 82.8381 11.1369 80.525 9.69966C79.3678 8.98557 78.1767 8.32948 76.9518 7.73141C73.2761 5.94441 69.3409 4.74967 65.2921 4.19142C65.1244 4.16361 64.9539 4.15015 64.7853 4.13131L64.2784 4.07659L63.2638 3.96804C62.9247 3.93844 62.5847 3.92677 62.2455 3.90524L61.2264 3.84872L60.2064 3.84065H59.696C59.5255 3.84065 59.356 3.83617 59.1855 3.84603L58.1664 3.8864L57.6559 3.90704C57.4864 3.91691 57.3168 3.93485 57.1473 3.9483L56.1309 4.03801L55.877 4.05955L55.624 4.09274L55.1171 4.15823C54.7807 4.20398 54.4425 4.24076 54.1061 4.29369L53.1031 4.46055C52.9354 4.49016 52.7676 4.51707 52.5999 4.55026L52.1046 4.65612L51.1062 4.86963L50.1193 5.11903C49.9543 5.16209 49.7883 5.19887 49.625 5.24642L49.1352 5.38816L48.6445 5.52991L48.3996 5.60078L48.1565 5.67972L47.1858 5.9955C46.5444 6.22247 45.9029 6.44944 45.2723 6.70512C44.9538 6.82623 44.6443 6.96079 44.3285 7.09446C44.1724 7.16174 44.0145 7.22544 43.8593 7.29541L43.3883 7.51072C43.0771 7.64887 42.772 7.79869 42.4652 7.94671C42.3109 8.01758 42.1611 8.09833 42.0113 8.17727L41.5627 8.415C39.1435 9.66488 36.8689 11.1766 34.7797 12.923L34.0118 13.594L33.6242 13.9268L33.2555 14.2794L32.5208 14.9836L31.8121 15.7157C30.8818 16.7025 29.9865 17.7243 29.1602 18.799C28.334 19.8738 27.5454 20.9745 26.7954 22.1049C26.4151 22.6727 26.067 23.2496 25.7019 23.8192L25.5655 24.0328L25.4372 24.2508L25.1807 24.6885L24.925 25.1254C24.8353 25.2708 24.7527 25.4161 24.6747 25.5659L24.1884 26.455C24.0216 26.7483 23.8772 27.0542 23.7228 27.3521L23.4941 27.8006L23.3802 28.0267L23.2734 28.2563L22.8446 29.1741C22.2875 30.404 21.7842 31.6591 21.3195 32.9294C20.4195 35.4828 19.7159 38.1013 19.2149 40.762V40.762C19.1923 40.903 19.1146 41.0292 18.9989 41.1129C18.8833 41.1966 18.7391 41.2309 18.5981 41.2083C18.4572 41.1857 18.3309 41.1081 18.2472 40.9924C18.1635 40.8767 18.1292 40.7325 18.1518 40.5916L18.1572 40.5997Z" fill="#292F44"/>
<path d="M35.9385 7.55237C36.3547 7.30755 36.7569 7.05608 37.1581 6.80904C37.5592 6.562 37.9603 6.31829 38.3614 6.08011L38.9642 5.72562L39.5694 5.37887L40.1769 5.03989C40.3832 4.92911 40.5826 4.81833 40.789 4.70755C41.6038 4.26972 42.4411 3.87115 43.2977 3.51334C44.1561 3.15718 45.0334 2.84399 45.9259 2.57504C46.815 2.30695 47.6949 2.04994 48.5922 1.79958C49.0397 1.67551 49.4895 1.5603 49.9394 1.44398C50.3892 1.32766 50.8413 1.22242 51.2946 1.11164C51.7479 1.00086 52.2023 0.903373 52.6579 0.808102C53.1135 0.712832 53.5714 0.613129 54.0294 0.523397C54.9468 0.343934 55.8684 0.174073 56.7943 0.0138116C56.9071 -0.00604617 57.0229 -0.00447714 57.1351 0.0184297C57.2473 0.0413365 57.3536 0.0851326 57.4481 0.147317C57.5425 0.209501 57.6233 0.288855 57.6856 0.380849C57.748 0.472843 57.7908 0.575676 57.8116 0.683475C57.8324 0.791274 57.8307 0.901929 57.8068 1.00912C57.7828 1.11631 57.737 1.21795 57.6719 1.30821C57.6068 1.39848 57.5238 1.47562 57.4275 1.53521C57.3312 1.59481 57.2236 1.63571 57.1108 1.65557C57.0587 1.66439 57.006 1.66884 56.9531 1.66886C56.0419 1.66886 55.1307 1.70579 54.2195 1.77964C53.765 1.81952 53.3094 1.85829 52.8562 1.91036C52.4029 1.96243 51.9496 2.02114 51.4975 2.08982C50.592 2.21722 49.6936 2.3845 48.7998 2.57615C48.3523 2.67031 47.9106 2.77444 47.4619 2.88412C47.0133 2.99379 46.5716 3.10567 46.1322 3.2231C44.3725 3.67935 42.6867 4.36407 41.1217 5.25812C40.7333 5.47968 40.3554 5.72672 39.9914 5.98816C39.6254 6.24569 39.2737 6.52116 38.9376 6.81347C38.2578 7.39019 37.6526 8.04251 37.1349 8.75655C37.0025 8.94341 36.7979 9.07237 36.566 9.11506C36.3341 9.15776 36.094 9.11069 35.8985 8.9842C35.7029 8.85772 35.568 8.66219 35.5233 8.44062C35.4786 8.21905 35.5279 7.9896 35.6602 7.80274C35.7298 7.7036 35.8207 7.61976 35.9269 7.55681L35.9385 7.55237Z" fill="#292F44"/>
<path d="M105.16 42.8792H105.217C105.229 42.8786 105.241 42.8786 105.252 42.8792C105.261 42.8794 105.269 42.8809 105.277 42.8837C105.281 42.8846 105.285 42.8872 105.288 42.8909C105.288 42.9025 105.288 42.9142 105.294 42.9259L105.306 42.9967L105.33 43.1376L105.375 43.4211C105.404 43.6095 105.432 43.7988 105.457 43.988C105.507 44.3666 105.547 44.7461 105.585 45.1265C105.651 45.8872 105.69 46.6516 105.69 47.4132C105.69 48.1748 105.66 48.9383 105.595 49.699C105.53 50.4598 105.431 51.2151 105.292 51.9633C105.268 52.1044 105.189 52.2304 105.074 52.3146C104.958 52.3988 104.814 52.4344 104.672 52.414C104.53 52.3935 104.402 52.3185 104.315 52.205C104.228 52.0915 104.189 51.9485 104.205 51.8063C104.284 51.0788 104.35 50.3512 104.378 49.6219C104.405 48.8925 104.416 48.1641 104.398 47.4356C104.38 46.7072 104.334 45.9805 104.257 45.2566C104.221 44.8977 104.178 44.5326 104.128 44.1729C104.103 43.9934 104.076 43.814 104.048 43.6346L104.004 43.3655L103.98 43.2309L103.968 43.1636L103.962 43.1304C103.964 43.126 103.966 43.1222 103.97 43.1196C103.977 43.1146 103.984 43.1106 103.992 43.108C104.002 43.1025 104.013 43.0977 104.024 43.0936L104.079 43.0748L104.102 43.0667C104.444 42.952 104.8 42.8889 105.16 42.8792V42.8792Z" fill="#292F44"/>
<path d="M53.248 37.9158C53.3502 38.1643 53.405 38.3985 53.2794 40.8323C53.1825 42.6938 53.1349 43.6241 53.0192 44.8478C52.5823 49.4921 52.3634 51.8147 52.4388 53.9337C52.4783 55.0371 52.419 56.0688 52.3015 58.133C52.2369 59.267 52.1714 59.6231 51.9965 60.0259C51.8171 60.4485 51.6377 60.6315 51.6753 60.9733C51.7328 61.4541 52.1912 61.9798 52.7599 62.0112C52.8075 62.0112 53.3072 62.0355 53.5234 61.7215C53.684 61.4873 53.553 61.2648 53.5844 60.6216C53.5987 60.3858 53.6287 60.1511 53.6741 59.9192C53.8302 58.9324 53.8015 57.3445 53.7961 57.0179C53.7898 56.6124 53.8123 55.5 53.8571 53.277C53.8795 52.1807 53.9056 50.8898 53.9953 49.3064C54.1065 47.3274 54.1666 47.5364 54.3613 44.6495C54.4815 42.8616 54.477 42.4965 54.6053 41.5348C54.8161 39.9496 54.9211 39.1565 54.9265 39.1368C55.0381 38.7503 55.0851 38.3481 55.0655 37.9463C55.0467 37.6162 55.0207 37.2394 54.7605 36.8922C54.6609 36.7603 54.3398 36.3324 53.8589 36.3728C53.7045 36.3899 53.5573 36.4467 53.4315 36.5377C53.3057 36.6288 53.2057 36.7509 53.1412 36.8922C52.9672 37.2869 53.1699 37.7229 53.248 37.9158Z" stroke="#292F44" stroke-miterlimit="10"/>
<path d="M53.7362 17.0587C53.7721 16.62 54.113 16.3357 54.1641 16.2944C54.3722 16.1257 54.6925 16.0782 55.3241 15.9894C55.8076 15.9212 56.0543 15.8889 56.3019 15.9284C56.4131 15.9463 56.859 16.0181 57.1873 16.2944C57.3991 16.4738 57.7256 16.8757 57.7068 18.0357C57.6879 19.1956 57.3479 19.8685 57.0348 20.8167C56.9155 21.1756 56.7209 22.279 56.3324 24.4814C55.9736 26.4981 55.7762 27.8375 55.7215 28.2071C55.3474 30.7334 55.3061 31.5748 55.3546 32.2387C55.3922 32.7474 55.3617 33.2623 55.4443 33.7638C55.5241 34.2402 55.6237 34.4976 55.4748 34.8017C55.4014 34.9545 55.2895 35.0855 55.1501 35.1819C55.0108 35.2783 54.8487 35.3368 54.6799 35.3517C54.6091 35.3517 54.2547 35.3651 54.1004 35.1382C54.0008 34.9919 54.0331 34.8215 54.1004 34.4931C54.2323 33.8517 54.2987 33.5305 54.313 33.4884C54.6476 32.4971 54.5382 28.5857 54.679 25.5786C54.7391 24.3101 54.8979 22.0359 54.7104 20.5395C54.6001 19.6603 54.531 19.0988 54.252 18.5856C54.0908 18.2827 53.9577 17.9656 53.8546 17.6383C53.7469 17.3225 53.7245 17.1996 53.7362 17.0587Z" stroke="#292F44" stroke-miterlimit="10"/>
<path d="M46.0408 12.8035C45.8667 12.5503 45.7712 12.2513 45.7662 11.9441C45.7662 11.8212 45.7716 11.5799 45.9152 11.3951C45.9851 11.3054 46.1637 11.1259 47.2554 11.143C47.8834 11.1511 47.7444 11.2076 48.9842 11.3224C49.4462 11.3664 49.6507 11.3762 49.8319 11.5512C49.9371 11.6628 50.0139 11.7981 50.0557 11.9457C50.0976 12.0932 50.1033 12.2487 50.0724 12.3989C50.0212 12.6474 49.8929 12.6914 49.7628 12.9829C49.6148 13.3095 49.6166 13.5966 49.6139 13.8531C49.6076 14.6022 49.5368 15.3495 49.5242 16.0959C49.509 16.923 49.4776 16.6799 49.4103 18.3064C49.3879 18.8312 49.3636 19.4197 49.3529 20.1966C49.3529 20.1966 49.3412 21.004 49.3529 21.8571C49.4175 26.6253 49.9369 30.0343 49.9369 30.0343C50.3074 32.4645 50.4922 33.6792 50.5092 33.7447C50.5873 34.0426 50.6375 34.501 50.738 35.4169C50.7945 35.9265 50.8071 36.1534 50.6698 36.3786C50.3926 36.8335 49.7449 36.8855 49.5036 36.9052C49.2129 36.9285 48.593 36.9788 48.2665 36.585C48.0018 36.2665 48.0601 35.8152 48.1292 35.2788C48.1821 34.8697 48.2647 34.7513 48.3355 34.4086C48.4764 33.7268 48.358 33.1813 48.2898 32.8054C48.0377 31.4293 48.0359 30.0172 47.808 28.6366C47.4375 26.3938 46.971 23.5661 46.8921 20.6658C46.8374 18.6401 46.8096 17.6273 46.8464 16.9778C46.8894 16.2089 46.9432 15.8869 46.8464 15.3065C46.7396 14.6875 46.5647 13.636 46.0408 12.8035Z" stroke="#292F44" stroke-miterlimit="10"/>
<path d="M47.4402 39.4963C47.3909 39.377 47.2186 38.9814 47.3711 38.6037C47.5326 38.2036 47.9731 38.0341 48.2189 37.939C48.6989 37.7588 49.228 37.7588 49.7081 37.939C49.9081 38.0197 50.1235 38.1067 50.2571 38.3283C50.4258 38.6073 50.3639 38.9312 50.3029 39.2254C50.2419 39.5232 50.1338 39.8094 49.9826 40.0732C49.3663 41.0753 49.5018 44.0815 49.5018 44.0815C49.6076 46.431 49.5538 48.785 49.6157 51.1363C49.7574 56.4373 49.6471 52.5161 49.7305 55.6936C49.7727 57.2941 49.7781 57.4026 49.7763 57.8009C49.7763 58.8631 49.7287 59.0461 49.7996 59.6337C49.9019 60.4878 49.9539 60.9148 50.1199 61.3517C50.2096 61.5975 50.3486 61.8846 50.3262 62.2909C50.3236 62.5419 50.2522 62.7873 50.1199 63.0006C49.6893 63.6142 48.4414 63.7182 47.9668 63.1611C47.6501 62.7871 47.7407 62.1896 47.7874 61.9052C47.8484 61.4997 47.9668 61.4208 48.0395 61.0341C48.121 60.599 48.1106 60.1516 48.009 59.7207C47.7156 58.6774 48.0296 57.199 48.2225 56.179C48.4216 55.1231 48.4019 53.3297 48.3597 49.7422C48.3274 46.9172 48.3113 45.5052 48.1534 44.5201C47.8816 42.8452 48.0816 41.0618 47.4402 39.4963Z" stroke="#292F44" stroke-miterlimit="10"/>
<path d="M56.3357 35.5799C56.3079 35.6104 56.2308 35.7037 56.2326 36.1298C56.2326 36.495 56.2326 36.6798 56.3304 36.9032C56.4156 37.1041 56.5376 37.2396 56.7789 37.5096C56.9861 37.7393 57.0839 37.7994 57.1629 37.9913C57.2526 38.2084 57.2212 38.3681 57.2714 38.3753C57.3217 38.3825 57.3898 38.1304 57.598 37.6935C57.7541 37.3643 57.7935 37.3607 57.8267 37.2064C57.8742 36.9523 57.84 36.6898 57.7289 36.4564C57.6545 36.2886 57.6392 36.3478 57.1907 35.7979C57.0041 35.5692 56.9467 35.4848 56.813 35.4489C56.7289 35.4275 56.6407 35.4284 56.5571 35.4513C56.4734 35.4743 56.3971 35.5186 56.3357 35.5799Z" stroke="#292F44" stroke-miterlimit="10"/>
<path d="M56.3695 35.277C56.6288 35.4914 57.1671 35.2007 57.194 35.1873C57.4748 35.0321 57.6138 34.8051 57.8219 34.4597C58.0157 34.1412 57.961 34.1341 58.2337 33.5895C58.4984 33.0629 58.6545 32.862 58.5657 32.731C58.5405 32.6924 58.4759 32.6323 58.188 32.6413C57.9332 32.6467 57.1949 32.6637 56.7221 33.2594C56.5247 33.5079 56.47 33.7366 56.3632 34.1637C56.2556 34.6338 56.1461 35.0922 56.3695 35.277Z" stroke="#292F44" stroke-miterlimit="10"/>
<path d="M46.4209 38.614C46.7878 38.3009 46.76 37.7169 46.742 37.367C46.7008 36.5192 46.2612 35.9164 45.9634 35.519C45.4942 34.891 45.0133 34.5734 44.2535 34.0683C43.9269 33.8521 42.7759 33.0869 42.5741 33.3049C42.4844 33.4054 42.6737 33.6234 42.8028 34.2361C42.8926 34.6613 42.8522 34.8093 42.8926 35.1682C42.9545 35.7065 43.1222 36.059 43.4425 36.7408C43.8417 37.5931 44.0418 38.0183 44.3396 38.2659C44.9128 38.7378 45.914 39.0473 46.4209 38.614Z" stroke="#292F44" stroke-miterlimit="10"/>
<path d="M46.273 39.0163C46.5161 39.2441 46.1106 40.0489 45.8603 40.5414C45.5481 41.1604 45.392 41.469 45.0664 41.7022C44.6842 41.9758 44.2671 42.0216 43.4327 42.114C42.8155 42.1831 42.768 42.1077 42.7608 42.0835C42.7303 41.9938 43.0506 41.8754 43.3888 41.5497C43.6355 41.3102 43.762 41.0689 44.0168 40.5871C44.4222 39.8138 44.3577 39.6532 44.6447 39.4272C44.8538 39.2612 45.0691 39.2038 45.4844 39.0925C45.9294 38.9723 46.1573 38.9095 46.273 39.0163Z" stroke="#292F44" stroke-miterlimit="10"/>
<path d="M0.261476 64.8227C2.41005 64.5159 4.5676 64.279 6.73142 64.0826L7.53882 64.0126L8.3507 63.9471C8.88896 63.9023 9.43052 63.8619 9.97536 63.826C11.0591 63.7542 12.1434 63.6917 13.2283 63.6385C14.3129 63.5847 15.3984 63.5488 16.4839 63.5201C17.5694 63.4914 18.6558 63.4645 19.7422 63.4627C21.915 63.4537 24.0869 63.4627 26.2606 63.5389C28.4343 63.6152 30.6079 63.7246 32.7709 63.8682C34.9338 64.0117 37.0878 64.1588 39.2453 64.2656L40.8601 64.3418C41.3984 64.3658 41.9366 64.387 42.4749 64.4055L44.0897 64.4656L45.7045 64.5123C47.8629 64.5661 50.0214 64.5865 52.1798 64.5733C54.3382 64.5589 56.4976 64.506 58.6596 64.4378L65.1547 64.2378C67.3221 64.178 69.4907 64.1361 71.6605 64.1122C73.8303 64.0883 75.9992 64.0924 78.1672 64.1247C80.3364 64.1526 82.5047 64.1929 84.6722 64.2665C86.8396 64.34 89.0061 64.4307 91.1708 64.5464C95.502 64.7713 99.8264 65.082 104.144 65.4785C104.218 65.4884 104.285 65.5264 104.332 65.5846C104.379 65.6428 104.402 65.7167 104.396 65.7912C104.391 65.8658 104.356 65.9352 104.301 65.9853C104.245 66.0355 104.173 66.0624 104.098 66.0607V66.0607C101.938 65.916 99.7785 65.7862 97.6183 65.6714C95.4581 65.552 93.2969 65.4605 91.1358 65.3825C86.8118 65.2318 82.4874 65.1567 78.1627 65.1573C75.9995 65.1573 73.8375 65.1791 71.6767 65.2228C69.5158 65.2665 67.3547 65.3263 65.1933 65.4022L58.7027 65.6597C56.5362 65.7404 54.3652 65.805 52.1933 65.831C50.0214 65.8571 47.8477 65.8463 45.6758 65.805C43.5039 65.7638 41.3347 65.6839 39.1655 65.5798C36.9963 65.4758 34.8288 65.3331 32.6704 65.1923C30.512 65.0515 28.3643 64.9366 26.2049 64.8765C24.0456 64.8164 21.8899 64.7796 19.7314 64.7787C18.6549 64.7787 17.573 64.7787 16.4929 64.7895C15.4127 64.8003 14.3344 64.8227 13.2552 64.8424C12.176 64.8622 11.0967 64.8927 10.0175 64.9321L8.39825 64.9887L7.59085 65.0201L6.78345 65.0568C4.62411 65.1465 2.46657 65.2766 0.306332 65.4004C0.231432 65.404 0.158028 65.3786 0.101282 65.3296C0.0445363 65.2806 0.00878685 65.2117 0.00141685 65.137C-0.00595315 65.0624 0.0156197 64.9878 0.0616803 64.9287C0.107741 64.8695 0.174769 64.8303 0.248918 64.8191L0.261476 64.8227Z" fill="#292F44"/>
<path d="M118.908 65.1159C120.3 64.4879 121.528 64.3354 122.593 64.4377C123.721 64.5453 124.246 64.9015 125.609 65.1894C126.842 65.4473 128.107 65.519 129.362 65.402" stroke="#292F44" stroke-width="1.5" stroke-linecap="round" stroke-linejoin="round"/>
<path d="M15.728 42.9405C15.9523 41.5006 16.1846 40.0697 16.4645 38.646C16.6009 37.9337 16.7534 37.225 16.9086 36.5172C16.9875 36.1646 17.0692 35.8111 17.1553 35.4595L17.2836 34.932L17.4163 34.4054C17.5958 33.702 17.7922 33.0068 17.9735 32.3043C18.1547 31.6019 18.3161 30.8923 18.4911 30.1836C18.6605 29.4737 18.8656 28.7727 19.1056 28.0835C19.1666 27.9112 19.2285 27.7399 19.2958 27.5703C19.3631 27.4008 19.4375 27.2348 19.5138 27.0688C19.6685 26.7357 19.8528 26.4171 20.0646 26.117C20.1372 26.0175 20.2413 25.9456 20.36 25.9128C20.4787 25.8801 20.605 25.8885 20.7184 25.9366C20.8317 25.9847 20.9254 26.0698 20.9843 26.178C21.0431 26.2862 21.0636 26.4111 21.0425 26.5324V26.5458C21.0086 26.723 20.9652 26.8982 20.9124 27.0706C20.8621 27.2429 20.8056 27.4124 20.7446 27.5793C20.6244 27.9148 20.4889 28.2431 20.3445 28.5661C20.0637 29.2192 19.7605 29.866 19.4653 30.5182C19.1702 31.1704 18.8849 31.8298 18.6517 32.5062C18.4184 33.1826 18.2318 33.8743 18.047 34.5695C17.8622 35.2648 17.7052 35.9592 17.5599 36.6598C17.4146 37.3604 17.2908 38.0656 17.1822 38.7716C16.9638 40.1835 16.8323 41.6075 16.7884 43.0355C16.7889 43.1071 16.775 43.178 16.7476 43.2441C16.7201 43.3102 16.6797 43.37 16.6286 43.4202C16.5776 43.4703 16.5169 43.5097 16.4504 43.5359C16.3838 43.5622 16.3127 43.5748 16.2411 43.5729C16.1696 43.5711 16.0992 43.555 16.034 43.5254C15.9689 43.4958 15.9103 43.4535 15.8619 43.4008C15.8134 43.3482 15.776 43.2863 15.752 43.219C15.7279 43.1516 15.7176 43.0801 15.7217 43.0086C15.722 42.9858 15.7241 42.963 15.728 42.9405V42.9405Z" fill="#292F44"/>
<path d="M60.0351 61.6086L60.0891 61.3206L61.5651 60.6006L63.6891 50.7546L62.1951 50.0166L62.2671 49.7286H65.4711L67.8471 59.4306L73.2471 49.7286H76.2711L76.1991 50.0166L74.6871 50.7186L73.5351 60.6006L74.6151 61.3206L74.5611 61.6086H70.5831L70.6371 61.3206L72.0231 60.6186L73.1031 51.8166L67.5771 61.6986H66.8211L64.4451 51.8166L62.6271 60.6186L63.8871 61.3206L63.8331 61.6086H60.0351ZM78.2753 61.7886C77.7953 61.7886 77.4053 61.5846 77.1053 61.1766C76.8173 60.7566 76.6733 60.1326 76.6733 59.3046C76.6733 58.5606 76.7873 57.8346 77.0153 57.1266C77.2553 56.4186 77.5793 55.7766 77.9873 55.2006C78.4073 54.6246 78.8873 54.1686 79.4273 53.8326C79.9673 53.4966 80.5433 53.3286 81.1553 53.3286C81.4553 53.3286 81.7433 53.3646 82.0193 53.4366C82.2953 53.5086 82.5413 53.6046 82.7573 53.7246L83.3873 53.3286H83.8373L82.7393 59.4666C82.6793 59.8266 82.6673 60.0846 82.7033 60.2406C82.7513 60.3966 82.8533 60.4746 83.0093 60.4746C83.2133 60.4746 83.4353 60.3666 83.6753 60.1506C83.9153 59.9226 84.1433 59.5806 84.3593 59.1246L84.5933 59.2326C84.2453 60.1326 83.8673 60.7866 83.4593 61.1946C83.0633 61.5906 82.6553 61.7886 82.2353 61.7886C81.8153 61.7886 81.5273 61.6266 81.3713 61.3026C81.2153 60.9786 81.1853 60.5466 81.2813 60.0066L81.3713 59.5386H81.2993C80.8433 60.2346 80.3633 60.7866 79.8593 61.1946C79.3553 61.5906 78.8273 61.7886 78.2753 61.7886ZM78.0413 58.6026C78.0413 59.2746 78.1133 59.7786 78.2573 60.1146C78.4133 60.4386 78.7013 60.6006 79.1213 60.6006C79.4093 60.6006 79.6973 60.5046 79.9853 60.3126C80.2733 60.1206 80.5493 59.8746 80.8133 59.5746C81.0773 59.2746 81.3113 58.9686 81.5153 58.6566L82.1813 54.9486C81.9533 54.6486 81.7193 54.4206 81.4793 54.2646C81.2513 54.1086 80.9693 54.0306 80.6333 54.0306C80.1173 54.0306 79.6613 54.2526 79.2653 54.6966C78.8813 55.1406 78.5813 55.7106 78.3653 56.4066C78.1493 57.1026 78.0413 57.8346 78.0413 58.6026ZM87.2183 61.7886C86.6063 61.7886 86.1083 61.7046 85.7243 61.5366C85.3403 61.3566 85.0643 61.1346 84.8963 60.8706C84.8243 60.7626 84.7763 60.6726 84.7523 60.6006C84.7283 60.5286 84.7163 60.4506 84.7163 60.3666C84.7163 60.2946 84.7283 60.2226 84.7523 60.1506C84.7763 60.0666 84.8363 60.0006 84.9323 59.9526L85.3283 59.7366H85.4543L85.7603 60.2586C85.9403 60.5586 86.1803 60.7866 86.4803 60.9426C86.7803 61.0866 87.0803 61.1586 87.3803 61.1586C87.8363 61.1586 88.2083 61.0386 88.4963 60.7986C88.7963 60.5586 88.9463 60.2106 88.9463 59.7546C88.9463 59.2866 88.7903 58.9266 88.4783 58.6746C88.1783 58.4226 87.8363 58.1826 87.4523 57.9546C86.9963 57.6786 86.6543 57.4266 86.4263 57.1986C86.1983 56.9706 86.0423 56.7366 85.9583 56.4966C85.8743 56.2566 85.8323 55.9686 85.8323 55.6326C85.8323 55.2846 85.9643 54.9366 86.2283 54.5886C86.4923 54.2286 86.8403 53.9286 87.2723 53.6886C87.7043 53.4486 88.1603 53.3286 88.6403 53.3286C89.1683 53.3286 89.5823 53.4126 89.8823 53.5806C90.1823 53.7366 90.4163 53.9406 90.5843 54.1926C90.6923 54.3606 90.7463 54.5166 90.7463 54.6606C90.7463 54.7446 90.7223 54.8286 90.6743 54.9126C90.6383 54.9966 90.5783 55.0626 90.4943 55.1106L90.1523 55.2906H90.0263L89.6303 54.7326C89.4623 54.4926 89.2703 54.3126 89.0543 54.1926C88.8503 54.0606 88.5923 53.9946 88.2803 53.9946C87.9323 53.9946 87.6323 54.1026 87.3803 54.3186C87.1403 54.5226 87.0203 54.7926 87.0203 55.1286C87.0203 55.5126 87.1343 55.8306 87.3623 56.0826C87.6023 56.3346 87.8783 56.5506 88.1903 56.7306C88.6223 56.9826 88.9763 57.2226 89.2523 57.4506C89.5403 57.6786 89.7563 57.9366 89.9003 58.2246C90.0443 58.5126 90.1163 58.8786 90.1163 59.3226C90.1163 59.7426 89.9903 60.1446 89.7383 60.5286C89.4863 60.9006 89.1383 61.2066 88.6943 61.4466C88.2623 61.6746 87.7703 61.7886 87.2183 61.7886ZM93.294 61.7886C92.682 61.7886 92.184 61.7046 91.8 61.5366C91.416 61.3566 91.14 61.1346 90.972 60.8706C90.9 60.7626 90.852 60.6726 90.828 60.6006C90.804 60.5286 90.792 60.4506 90.792 60.3666C90.792 60.2946 90.804 60.2226 90.828 60.1506C90.852 60.0666 90.912 60.0006 91.008 59.9526L91.404 59.7366H91.53L91.836 60.2586C92.016 60.5586 92.256 60.7866 92.556 60.9426C92.856 61.0866 93.156 61.1586 93.456 61.1586C93.912 61.1586 94.284 61.0386 94.572 60.7986C94.872 60.5586 95.022 60.2106 95.022 59.7546C95.022 59.2866 94.866 58.9266 94.554 58.6746C94.254 58.4226 93.912 58.1826 93.528 57.9546C93.072 57.6786 92.73 57.4266 92.502 57.1986C92.274 56.9706 92.118 56.7366 92.034 56.4966C91.95 56.2566 91.908 55.9686 91.908 55.6326C91.908 55.2846 92.04 54.9366 92.304 54.5886C92.568 54.2286 92.916 53.9286 93.348 53.6886C93.78 53.4486 94.236 53.3286 94.716 53.3286C95.244 53.3286 95.658 53.4126 95.958 53.5806C96.258 53.7366 96.492 53.9406 96.66 54.1926C96.768 54.3606 96.822 54.5166 96.822 54.6606C96.822 54.7446 96.798 54.8286 96.75 54.9126C96.714 54.9966 96.654 55.0626 96.57 55.1106L96.228 55.2906H96.102L95.706 54.7326C95.538 54.4926 95.346 54.3126 95.13 54.1926C94.926 54.0606 94.668 53.9946 94.356 53.9946C94.008 53.9946 93.708 54.1026 93.456 54.3186C93.216 54.5226 93.096 54.7926 93.096 55.1286C93.096 55.5126 93.21 55.8306 93.438 56.0826C93.678 56.3346 93.954 56.5506 94.266 56.7306C94.698 56.9826 95.052 57.2226 95.328 57.4506C95.616 57.6786 95.832 57.9366 95.976 58.2246C96.12 58.5126 96.192 58.8786 96.192 59.3226C96.192 59.7426 96.066 60.1446 95.814 60.5286C95.562 60.9006 95.214 61.2066 94.77 61.4466C94.338 61.6746 93.846 61.7886 93.294 61.7886ZM99.2797 61.7886C98.7997 61.7886 98.4097 61.5846 98.1097 61.1766C97.8217 60.7566 97.6777 60.1326 97.6777 59.3046C97.6777 58.5606 97.7917 57.8346 98.0197 57.1266C98.2597 56.4186 98.5837 55.7766 98.9917 55.2006C99.4117 54.6246 99.8917 54.1686 100.432 53.8326C100.972 53.4966 101.548 53.3286 102.16 53.3286C102.46 53.3286 102.748 53.3646 103.024 53.4366C103.3 53.5086 103.546 53.6046 103.762 53.7246L104.392 53.3286H104.842L103.744 59.4666C103.684 59.8266 103.672 60.0846 103.708 60.2406C103.756 60.3966 103.858 60.4746 104.014 60.4746C104.218 60.4746 104.44 60.3666 104.68 60.1506C104.92 59.9226 105.148 59.5806 105.364 59.1246L105.598 59.2326C105.25 60.1326 104.872 60.7866 104.464 61.1946C104.068 61.5906 103.66 61.7886 103.24 61.7886C102.82 61.7886 102.532 61.6266 102.376 61.3026C102.22 60.9786 102.19 60.5466 102.286 60.0066L102.376 59.5386H102.304C101.848 60.2346 101.368 60.7866 100.864 61.1946C100.36 61.5906 99.8317 61.7886 99.2797 61.7886ZM99.0457 58.6026C99.0457 59.2746 99.1177 59.7786 99.2617 60.1146C99.4177 60.4386 99.7057 60.6006 100.126 60.6006C100.414 60.6006 100.702 60.5046 100.99 60.3126C101.278 60.1206 101.554 59.8746 101.818 59.5746C102.082 59.2746 102.316 58.9686 102.52 58.6566L103.186 54.9486C102.958 54.6486 102.724 54.4206 102.484 54.2646C102.256 54.1086 101.974 54.0306 101.638 54.0306C101.122 54.0306 100.666 54.2526 100.27 54.6966C99.8857 55.1406 99.5857 55.7106 99.3697 56.4066C99.1537 57.1026 99.0457 57.8346 99.0457 58.6026ZM109.253 58.8546C108.893 58.8546 108.563 58.8006 108.263 58.6926C107.987 58.8246 107.789 58.9926 107.669 59.1966C107.561 59.3886 107.507 59.5926 107.507 59.8086C107.507 60.0486 107.627 60.2346 107.867 60.3666C108.107 60.4986 108.413 60.6066 108.785 60.6906C109.169 60.7746 109.577 60.8646 110.009 60.9606C110.441 61.0446 110.843 61.1646 111.215 61.3206C111.599 61.4646 111.911 61.6626 112.151 61.9146C112.391 62.1786 112.511 62.5266 112.511 62.9586C112.511 63.4386 112.361 63.9066 112.061 64.3626C111.761 64.8186 111.311 65.1906 110.711 65.4786C110.123 65.7786 109.373 65.9286 108.461 65.9286C107.393 65.9286 106.601 65.7546 106.085 65.4066C105.581 65.0586 105.329 64.6206 105.329 64.0926C105.329 63.7086 105.389 63.4086 105.509 63.1926C105.617 62.9766 105.803 62.7366 106.067 62.4726L107.507 61.6626V61.6266C107.135 61.5186 106.823 61.3686 106.571 61.1766C106.331 60.9846 106.211 60.7026 106.211 60.3306C106.211 60.0786 106.241 59.8686 106.301 59.7006C106.361 59.5326 106.475 59.3526 106.643 59.1606L107.849 58.5486V58.4946C107.525 58.3026 107.267 58.0446 107.075 57.7206C106.895 57.3846 106.805 57.0066 106.805 56.5866C106.805 56.0826 106.949 55.5846 107.237 55.0926C107.537 54.5886 107.939 54.1686 108.443 53.8326C108.959 53.4966 109.547 53.3286 110.207 53.3286C110.531 53.3286 110.867 53.3886 111.215 53.5086H113.933V54.3006H112.331L112.259 54.3546C112.511 54.6906 112.637 55.1346 112.637 55.6866C112.637 56.0226 112.559 56.3766 112.403 56.7486C112.247 57.1086 112.019 57.4506 111.719 57.7746C111.419 58.0986 111.059 58.3626 110.639 58.5666C110.231 58.7586 109.769 58.8546 109.253 58.8546ZM109.577 58.1526C109.913 58.1526 110.207 58.0266 110.459 57.7746C110.723 57.5226 110.927 57.2166 111.071 56.8566C111.227 56.4846 111.305 56.1186 111.305 55.7586C111.305 55.2426 111.179 54.8286 110.927 54.5166C110.675 54.1926 110.345 54.0306 109.937 54.0306C109.577 54.0306 109.259 54.1506 108.983 54.3906C108.719 54.6186 108.515 54.9126 108.371 55.2726C108.227 55.6326 108.155 56.0046 108.155 56.3886C108.155 56.9166 108.281 57.3426 108.533 57.6666C108.797 57.9906 109.145 58.1526 109.577 58.1526ZM106.679 63.8946C106.679 64.3386 106.865 64.6926 107.237 64.9566C107.621 65.2326 108.131 65.3706 108.767 65.3706C109.595 65.3706 110.207 65.1846 110.603 64.8126C110.999 64.4406 111.197 63.9966 111.197 63.4806C111.197 63.1446 111.095 62.8746 110.891 62.6706C110.699 62.4786 110.441 62.3286 110.117 62.2206C109.793 62.1126 109.439 62.0226 109.055 61.9506C108.683 61.8906 108.317 61.8186 107.957 61.7346C107.405 62.1186 107.051 62.4846 106.895 62.8326C106.751 63.1926 106.679 63.5466 106.679 63.8946ZM116.784 61.7886C115.86 61.7886 115.182 61.5366 114.75 61.0326C114.318 60.5166 114.102 59.8206 114.102 58.9446C114.102 58.2366 114.216 57.5526 114.444 56.8926C114.684 56.2206 115.008 55.6206 115.416 55.0926C115.836 54.5526 116.316 54.1266 116.856 53.8146C117.408 53.4906 118.002 53.3286 118.638 53.3286C119.238 53.3286 119.688 53.4666 119.988 53.7426C120.3 54.0186 120.456 54.3426 120.456 54.7146C120.456 55.1226 120.312 55.5006 120.024 55.8486C119.736 56.1846 119.232 56.4966 118.512 56.7846C117.804 57.0606 116.802 57.3066 115.506 57.5226C115.482 57.7626 115.47 58.0146 115.47 58.2786C115.47 59.0106 115.626 59.5926 115.938 60.0246C116.25 60.4566 116.742 60.6726 117.414 60.6726C117.81 60.6726 118.2 60.5646 118.584 60.3486C118.968 60.1326 119.364 59.7786 119.772 59.2866H119.808L119.988 59.4306C119.58 60.1386 119.088 60.7086 118.512 61.1406C117.948 61.5726 117.372 61.7886 116.784 61.7886ZM118.152 53.9586C117.504 53.9586 116.952 54.2286 116.496 54.7686C116.052 55.2966 115.752 55.9986 115.596 56.8746C116.496 56.7186 117.198 56.5506 117.702 56.3706C118.206 56.1906 118.56 55.9806 118.764 55.7406C118.968 55.4886 119.07 55.1766 119.07 54.8046C119.07 54.5646 118.992 54.3666 118.836 54.2106C118.68 54.0426 118.452 53.9586 118.152 53.9586Z" fill="#292F44"/>
<path d="M13.0952 61.2933C12.3872 61.2933 11.7992 61.2273 11.3312 61.0953C10.8632 60.9513 10.3892 60.7413 9.90918 60.4653L10.2512 57.5133H10.5392L11.2412 59.6193C11.5652 59.9433 11.8892 60.1773 12.2132 60.3213C12.5492 60.4653 12.8912 60.5373 13.2392 60.5373C14.0912 60.5373 14.7332 60.2913 15.1652 59.7993C15.5972 59.2953 15.8132 58.6473 15.8132 57.8553C15.8132 57.3633 15.6512 56.9433 15.3272 56.5953C15.0152 56.2473 14.4452 55.8453 13.6172 55.3893C12.9452 55.0053 12.4532 54.5973 12.1412 54.1653C11.8292 53.7333 11.6732 53.2233 11.6732 52.6353C11.6732 51.9513 11.8592 51.3393 12.2312 50.7993C12.6032 50.2593 13.0772 49.8333 13.6532 49.5213C14.2412 49.2093 14.8532 49.0533 15.4892 49.0533C16.0172 49.0533 16.4912 49.1193 16.9112 49.2513C17.3312 49.3833 17.7512 49.5693 18.1712 49.8093L17.8472 52.6893H17.5592L16.8932 50.6013C16.6892 50.4093 16.4492 50.2353 16.1732 50.0793C15.9092 49.9233 15.5672 49.8453 15.1472 49.8453C14.7752 49.8453 14.4272 49.9473 14.1032 50.1513C13.7912 50.3433 13.5332 50.6253 13.3292 50.9973C13.1372 51.3573 13.0412 51.7773 13.0412 52.2573C13.0412 52.6893 13.1732 53.0673 13.4372 53.3913C13.7132 53.7033 14.1692 54.0393 14.8052 54.3993C15.4292 54.7473 15.9212 55.0773 16.2812 55.3893C16.6412 55.6893 16.8992 56.0133 17.0552 56.3613C17.2232 56.6973 17.3072 57.0873 17.3072 57.5313C17.3072 58.2753 17.1092 58.9293 16.7132 59.4933C16.3172 60.0573 15.7952 60.5013 15.1472 60.8253C14.5112 61.1373 13.8272 61.2933 13.0952 61.2933ZM20.2638 61.2933C19.8438 61.2933 19.5558 61.1313 19.3998 60.8073C19.2438 60.4833 19.2138 60.0513 19.3098 59.5113L21.1638 48.8733L19.5978 48.2613V48.1533L22.7118 47.6133H22.7658L20.7678 58.9713C20.7078 59.3313 20.6958 59.5893 20.7318 59.7453C20.7678 59.9013 20.8698 59.9793 21.0378 59.9793C21.2418 59.9793 21.4638 59.8713 21.7038 59.6553C21.9438 59.4273 22.1718 59.0853 22.3878 58.6293L22.6218 58.7373C22.2738 59.6373 21.8958 60.2913 21.4878 60.6993C21.0918 61.0953 20.6838 61.2933 20.2638 61.2933ZM26.3444 50.5833C26.0684 50.5833 25.8284 50.4813 25.6244 50.2773C25.4204 50.0733 25.3184 49.8333 25.3184 49.5573C25.3184 49.2813 25.4204 49.0413 25.6244 48.8373C25.8284 48.6333 26.0684 48.5313 26.3444 48.5313C26.6204 48.5313 26.8604 48.6333 27.0644 48.8373C27.2684 49.0413 27.3704 49.2813 27.3704 49.5573C27.3704 49.8333 27.2684 50.0733 27.0644 50.2773C26.8604 50.4813 26.6204 50.5833 26.3444 50.5833ZM25.0664 61.2933C24.6464 61.2933 24.3584 61.1313 24.2024 60.8073C24.0464 60.4833 24.0164 60.0513 24.1124 59.5113L25.0664 54.0933L23.5004 53.4813V53.3733L26.6144 52.8333H26.6684L25.5704 58.9713C25.5104 59.3313 25.4984 59.5893 25.5344 59.7453C25.5704 59.9013 25.6724 59.9793 25.8404 59.9793C26.0444 59.9793 26.2664 59.8713 26.5064 59.6553C26.7464 59.4273 26.9744 59.0853 27.1904 58.6293L27.4244 58.7373C27.0764 59.6373 26.6984 60.2913 26.2904 60.6993C25.8944 61.0953 25.4864 61.2933 25.0664 61.2933ZM28.506 61.1133L29.748 54.1113L28.344 53.4813V53.3733L30.9 52.8333H30.954V54.7233H31.026C31.446 54.2553 31.806 53.8833 32.106 53.6073C32.406 53.3313 32.7 53.1333 32.988 53.0133C33.276 52.8933 33.612 52.8333 33.996 52.8333C34.44 52.8333 34.806 53.0013 35.094 53.3373C35.382 53.6733 35.538 54.1353 35.562 54.7233H35.652C36.072 54.2553 36.432 53.8833 36.732 53.6073C37.032 53.3313 37.32 53.1333 37.596 53.0133C37.884 52.8933 38.226 52.8333 38.622 52.8333C39.162 52.8333 39.582 53.0733 39.882 53.5533C40.182 54.0333 40.26 54.6813 40.116 55.4973L39.486 58.9713C39.426 59.3313 39.414 59.5893 39.45 59.7453C39.486 59.9013 39.588 59.9793 39.756 59.9793C39.96 59.9793 40.182 59.8713 40.422 59.6553C40.662 59.4273 40.89 59.0853 41.106 58.6293L41.34 58.7373C40.992 59.6373 40.614 60.2913 40.206 60.6993C39.81 61.0953 39.402 61.2933 38.982 61.2933C38.562 61.2933 38.274 61.1313 38.118 60.8073C37.962 60.4833 37.932 60.0513 38.028 59.5113L38.73 55.5513C38.802 55.1313 38.76 54.7593 38.604 54.4353C38.46 54.0993 38.148 53.9313 37.668 53.9313C37.404 53.9313 37.14 54.0213 36.876 54.2013C36.624 54.3693 36.378 54.5793 36.138 54.8313C35.898 55.0713 35.682 55.2993 35.49 55.5153L34.482 61.1133H33.114L34.104 55.5513C34.176 55.1313 34.134 54.7593 33.978 54.4353C33.834 54.0993 33.522 53.9313 33.042 53.9313C32.778 53.9313 32.514 54.0213 32.25 54.2013C31.986 54.3813 31.728 54.5973 31.476 54.8493C31.236 55.0893 31.02 55.3233 30.828 55.5513L29.874 61.1133H28.506Z" fill="#292F44"/>
</svg>
